<svg xmlns="http://www.w3.org/2000/svg" xmlns:xlink="http://www.w3.org/1999/xlink"><defs><linearGradient id="a"><stop offset="0" stop-color="#70b0df"/><stop offset=".5" stop-color="#1b81c5"/><stop offset="1" stop-color="#4a98ce"/></linearGradient><linearGradient xlink:href="#a" id="b" x1="162.674" y1="14.453" x2="162.674" y2="175.035" gradientUnits="userSpaceOnUse"/><linearGradient x1="50%" y1="0%" x2="50%" y2="100%" id="b"><stop stop-color="#2E4F82" offset="0%"/><stop stop-color="#182E4D" offset="100%"/></linearGradient><path id="a" d="M224.236 88.738c0 11.564-9.688 21.025-21.529 21.025H21.75c-11.841 0-21.529-9.461-21.529-21.025V21.781C.221 10.218 9.909.756 21.75.756h180.957c11.841 0 21.529 9.462 21.529 21.025v66.957"/><path id="c" d="M-15.94.496H240V110H-15.94"/></defs><symbol id="ajax" viewBox="0 0 397.5 191.25"><g fill="#8c96a1"><path d="M48.822 92.924L12.205 174.94h23.95l7.118-17.382h36.803l7.12 17.382h23.949l-36.71-82.017H48.823zm13.006 19.338l6.213 15.595 6.213 15.598-12.389.03-12.388.03 6.175-15.626 6.176-15.627zM226.425 92.924l-36.617 82.017h23.95l7.118-17.382h36.803l7.12 17.382h23.948l-36.709-82.017h-25.613zm13.006 19.338l6.213 15.595 6.213 15.598-12.389.03-12.389.03 6.176-15.626 6.176-15.627zM295.011 92.641h27.2l17.392 26.153 18.438-26.153h26.807l-32.3 39.753 34.392 42.83h-27.2l-19.745-27.922-19.354 27.922h-29.03l35.046-42.437zM179.941 57.93l-32.56 32.025 11.209 10.143 10.603-10.66 1.184.001v61.155c0 7.763-6.25 14.013-14.014 14.013H145.23a13.983 13.983 0 0 1-14.014-14.013v-6.528h-21.65v8.13A25.28 25.28 0 0 0 134.9 177.53h28.766a25.28 25.28 0 0 0 25.336-25.336V89.482l.838.002 12.387 10.614 9.74-10.143L179.94 57.93z"/><path d="M120.23 137.333l32.56-32.026-11.21-10.142-10.603 10.66-1.183-.002V44.668c0-7.763 6.25-14.013 14.013-14.013h11.135c7.764 0 14.014 6.25 14.014 14.013v6.528h21.65v-8.13a25.28 25.28 0 0 0-25.336-25.335h-28.765a25.28 25.28 0 0 0-25.336 25.336v62.713l-.838-.002-12.387-10.614-9.74 10.143 32.025 32.025z"/></g><path d="M136.504 15.73a25.28 25.28 0 0 0-25.336 25.336v62.713l-.838-.002-12.387-10.613-9.74 10.143 32.026 32.025 32.56-32.025-11.209-10.143-10.603 10.66-1.184-.002V42.668c0-7.764 6.25-14.014 14.014-14.014h11.134c7.764 0 14.014 6.25 14.014 14.014v6.527h21.65v-8.129A25.28 25.28 0 0 0 165.27 15.73h-28.766zm43.437 40.2l-32.56 32.025 11.209 10.143 10.603-10.66 1.184.001v61.155c0 7.763-6.25 14.013-14.014 14.013H145.23a13.983 13.983 0 0 1-14.014-14.013v-6.528h-21.65v8.13A25.28 25.28 0 0 0 134.9 175.53h28.766a25.28 25.28 0 0 0 25.336-25.336V87.482l.838.002 12.387 10.614 9.74-10.143L179.94 55.93zm115.07 34.71l31.645 40.147-35.045 42.438h29.03l19.353-27.924 19.746 27.924h27.201l-34.392-42.83 32.299-39.754H358.04l-18.437 26.154L322.21 90.64h-27.2zm-246.189.284L12.205 172.94h23.95l7.118-17.382h36.803l7.12 17.382h23.949l-36.71-82.017H48.823zm177.604 0l-36.617 82.017h23.949l7.119-17.382h36.803l7.119 17.382h23.95l-36.71-82.017h-25.613zM61.828 110.262l6.213 15.595 6.213 15.598-12.389.03-12.388.03 6.175-15.626 6.176-15.627zm177.604 0l6.213 15.595 6.212 15.598-12.388.03-12.389.03 6.176-15.626 6.176-15.627z" fill="url(#b)" stroke="#0c4c75" stroke-width=".5"/></symbol><symbol id="css" viewBox="0 0 362 412"><path fill="#264de4" d="M362.367-.38l-33.046 370.199L180.778 411 32.644 369.877-.367-.38z"/><path fill="#2965f1" d="M301.03 346.246l28.24-316.352H181v349.629z"/><path fill="#ebebeb" d="M75.31 167.217l4.07 45.41H181v-45.41zM181 75.305H67.132l4.128 45.411H181zM181 332.399v-47.246l-.199.053-50.574-13.656-3.233-36.217H81.409l6.362 71.301 93.02 25.823z"/><path fill="#fff" d="M236.761 212.627l-5.271 58.894-50.647 13.67v47.244l93.094-25.801.683-7.672 10.671-119.551 1.108-12.194 8.198-91.912H180.843v45.411h63.988l-4.132 46.501h-59.856v45.41z"/></symbol><symbol id="gh" viewBox="140 139 520 510"><path d="M400 139c144 0 260 116 260 260 0 115-75 213-178 247-9 3-17-2-17-13v-71c0-35-18-48-18-48 57-6 119-28 119-128 0-44-27-70-27-70s14-29-2-69c0 0-22-7-72 27-42-12-88-12-130 0-50-34-72-27-72-27-16 40-2 69-2 69s-27 26-27 70c0 100 62 122 119 128 0 0-14 10-17 35-15 7-53 18-76-22 0 0-13-25-39-27 0 0-26 0-2 16 0 0 17 8 29 38 0 0 16 51 88 35v44c0 11-9 16-18 13-103-34-178-132-178-247 0-144 116-260 260-260z"/></symbol><symbol id="git" viewBox="0 0 97 97"><path fill="#F05133" d="M92.71 44.408L52.591 4.291a5.918 5.918 0 0 0-8.369 0l-8.33 8.332L46.459 23.19a7.022 7.022 0 0 1 7.229 1.685 7.03 7.03 0 0 1 1.67 7.275l10.186 10.185a7.028 7.028 0 0 1 7.275 1.671 7.043 7.043 0 0 1-9.961 9.958 7.043 7.043 0 0 1-1.531-7.658l-9.5-9.499v24.997a7.042 7.042 0 1 1-8.096 11.291 7.042 7.042 0 0 1 2.307-11.496v-25.23a7.041 7.041 0 0 1-3.823-9.235L31.798 16.715 4.288 44.222a5.92 5.92 0 0 0 0 8.371l40.121 40.118a5.918 5.918 0 0 0 8.369 0L92.71 52.779a5.92 5.92 0 0 0 0-8.371z"/></symbol><symbol id="gulp" viewBox="0 0 175 387"><g fill="#DA4648"><path d="M86.72 303.739c-22.574 0-40.017-3.391-48.405-5.412-5.736-1.382-10.342-2.812-13.841-4.281l11.187 19.113 4.376 59.719c0 6.695 21.268 12.122 47.503 12.122s47.503-5.427 47.503-12.122l3.465-60.369 10.585-18.519c-3.514 1.489-8.161 2.938-13.969 4.337-8.388 2.021-25.831 5.412-48.404 5.412zm62.736-194.328C132.888 111.725 110.899 113 87.54 113c-23.359 0-45.348-1.275-61.916-3.589-8.207-1.146-14.7-2.498-19.299-4.016-1.097-.363-2.956-.982-4.745-1.968L11.845 197.9a80.437 80.437 0 0 1 1.597-4.871 92.354 92.354 0 0 1 4.181-9.731 86.201 86.201 0 0 1 5.169-8.984 69.482 69.482 0 0 1 5.946-7.79c2.102-2.372 4.258-4.412 6.472-6.122 2.213-1.708 4.447-3.044 6.702-4.006 2.256-.962 4.49-1.444 6.703-1.444 2.549 0 5.015.697 7.397 2.091 2.381 1.393 4.607 3.65 6.681 6.769.476.697.778 1.402.903 2.115.127.714.189 1.386.189 2.016 0 1.493-.357 2.672-1.071 3.534-.714.863-1.562 1.294-2.542 1.294-.898 0-1.731-.473-2.501-1.418-.771-.946-1.632-2.298-2.585-4.057-.897-1.593-1.884-2.745-2.962-3.459-1.079-.713-2.248-1.07-3.509-1.07-1.961 0-4.055.813-6.282 2.439-2.228 1.625-4.434 3.774-6.618 6.445-2.186 2.672-4.28 5.724-6.283 9.159a95.582 95.582 0 0 0-5.317 10.551c-1.541 3.602-2.765 7.153-3.676 10.653-.911 3.5-1.366 6.644-1.366 9.431 0 .93.064 1.885.189 2.862.127.98.364 1.867.715 2.664.349.797.826 1.451 1.428 1.964.603.516 1.366.772 2.29.772 1.037 0 2.213-.348 3.531-1.045 1.316-.695 2.682-1.609 4.096-2.736a51.479 51.479 0 0 0 4.266-3.834 68.31 68.31 0 0 0 3.992-4.33 63.288 63.288 0 0 0 3.277-4.205c.953-1.344 1.667-2.514 2.144-3.51l3.908-11.697c.476-1.26 1.099-2.156 1.87-2.687.77-.531 1.562-.797 2.375-.797.391 0 .783.067 1.176.199.393.133.742.341 1.051.622.308.283.553.647.735 1.096.182.447.273.97.273 1.567 0 1.593-.14 3.085-.42 4.48a35.597 35.597 0 0 1-1.072 4.082 70.343 70.343 0 0 1-1.45 4.006 98.955 98.955 0 0 0-1.554 4.207c-.112.166-.315.687-.61 1.566-.294.881-.65 1.985-1.071 3.311-.42 1.328-.876 2.812-1.366 4.455-.491 1.643-.994 3.318-1.512 5.027a408.413 408.413 0 0 0-1.492 5.028 1259.144 1259.144 0 0 0-2.228 7.789 56.33 56.33 0 0 1-.462 1.594c-.14.529-.365 1.119-.672 1.765a11.665 11.665 0 0 1-1.093 1.842A6.712 6.712 0 0 1 40 238.945c-.504.381-1.022.573-1.555.573-.896 0-1.548-.299-1.953-.895-.407-.598-.609-1.693-.609-3.285v-.697c0-.233.013-.483.041-.746.027-.532.238-1.528.631-2.989.392-1.459.861-3.109 1.408-4.951.546-1.842 1.135-3.75 1.765-5.725.629-1.974 1.197-3.74 1.702-5.3a83.674 83.674 0 0 1-4.833 4.953 52.125 52.125 0 0 1-5.337 4.429c-1.822 1.311-3.657 2.381-5.505 3.211-1.849.829-3.628 1.245-5.337 1.245-1.961 0-3.649-.432-5.065-1.295-.255-.157-.496-.332-.736-.506l5.712 59.888c1.487 3.727 29.481 12.884 66.391 12.884 36.927 0 64.932-9.166 66.393-12.89l8.205-71.202c-.679.623-1.34 1.232-1.972 1.822-2.354 2.189-4.575 4.072-6.662 5.648-2.086 1.576-4.125 2.797-6.114 3.658-1.99.864-4.119 1.295-6.388 1.295-2.129 0-3.776-.465-4.938-1.394-1.162-.928-1.744-2.205-1.744-3.832v-.373c0-.116.014-.258.043-.424.111-.994.547-2.141 1.303-3.434a39.467 39.467 0 0 1 2.73-4.031 111.206 111.206 0 0 1 3.404-4.232 195.7 195.7 0 0 0 3.342-4.057c1.022-1.275 1.869-2.445 2.541-3.508.674-1.062 1.01-1.924 1.01-2.588 0-.398-.141-.713-.42-.947-.281-.23-.744-.348-1.387-.348-1.121 0-2.277.291-3.466.871-1.192.58-2.37 1.362-3.532 2.34a31.982 31.982 0 0 0-3.404 3.36 49.566 49.566 0 0 0-3.109 3.931 53.324 53.324 0 0 0-2.647 4.108 57.767 57.767 0 0 0-2.039 3.806c-.168.366-.406.881-.715 1.543-.308.664-.644 1.412-1.008 2.241-.365.83-.75 1.685-1.156 2.562a111.16 111.16 0 0 0-1.113 2.49l-.902 2.09a47.207 47.207 0 0 1-.569 1.27c-.14.298-.371.861-.693 1.691-.322.83-.694 1.801-1.113 2.912l-1.325 3.51a1626.309 1626.309 0 0 0-2.373 6.371c-.308.828-.506 1.393-.59 1.692a18.168 18.168 0 0 1-.986 2.44 10.044 10.044 0 0 1-1.303 2.016 5.96 5.96 0 0 1-1.681 1.392c-.631.35-1.338.523-2.121.523-1.01 0-1.842-.242-2.502-.722-.657-.481-.987-1.403-.987-2.762 0-.664.084-1.344.252-2.04.168-.697.379-1.387.631-2.066.252-.682.512-1.344.778-1.991.265-.648.511-1.269.734-1.867a973.25 973.25 0 0 1 4.623-9.98 460.161 460.161 0 0 0 4.518-9.904c.3-.682.576-1.35.869-2.028-.088.086-.174.176-.26.26-1.822 1.76-3.635 3.31-5.442 4.654-1.808 1.344-3.601 2.414-5.378 3.211-1.78.795-3.51 1.194-5.192 1.194-1.148 0-2.107-.182-2.877-.547-.771-.366-1.386-.864-1.849-1.493-.463-.63-.793-1.377-.989-2.24-.066-.295-.107-.603-.15-.91a40.99 40.99 0 0 1-1.488 1.11c-1.737 1.226-3.446 2.214-5.127 2.96-1.68.747-3.194 1.12-4.537 1.12-1.346 0-2.438-.448-3.28-1.344-.84-.895-1.259-2.422-1.259-4.578 0-1.528.224-3.303.671-5.326-.728 1.294-1.638 2.605-2.73 3.931a23.953 23.953 0 0 1-3.74 3.635A18.687 18.687 0 0 1 70.803 227c-1.738.68-3.629 1.02-5.673 1.02-.925 0-1.814-.116-2.669-.348a5.594 5.594 0 0 1-2.248-1.195c-.645-.563-1.162-1.319-1.555-2.264-.392-.945-.588-2.133-.588-3.559 0-.033.056-.539.168-1.519.112-.979.469-2.522 1.072-4.629.602-2.106 1.534-4.836 2.793-8.188 1.262-3.351 3.041-7.416 5.338-12.193.588-1.262 1.268-2.166 2.037-2.713.772-.548 1.604-.822 2.5-.822.393 0 .799.059 1.219.174.422.117.813.299 1.178.548.363.249.658.565.883.946.222.381.336.82.336 1.318 0 .332-.043.649-.127.945-.141.567-.442 1.303-.902 2.215-.463.914-1.003 1.959-1.62 3.137a293.69 293.69 0 0 0-1.953 3.809 54.344 54.344 0 0 0-1.912 4.23 42.237 42.237 0 0 0-1.513 4.455c-.42 1.51-.659 2.979-.714 4.405 0 .597.139 1.144.42 1.642.28.498.743.746 1.387.746 1.82 0 3.557-.598 5.211-1.791 1.652-1.195 3.178-2.68 4.58-4.455a42.767 42.767 0 0 0 3.803-5.725c1.135-2.041 2.08-3.906 2.836-5.599a28.386 28.386 0 0 0 1.408-3.633 36.134 36.134 0 0 1 1.324-3.584c.477-1.096 1.022-2.008 1.639-2.738.615-.729 1.387-1.095 2.31-1.095 1.01 0 1.807.382 2.397 1.145.588.764.881 1.676.881 2.737 0 .597-.188 1.42-.567 2.465a70.18 70.18 0 0 1-1.429 3.584 459.325 459.325 0 0 1-1.869 4.304 75.544 75.544 0 0 0-1.869 4.655 46.122 46.122 0 0 0-1.43 4.629c-.379 1.509-.567 2.912-.567 4.205 0 1.195.616 1.793 1.848 1.793.869 0 1.947-.299 3.236-.897 1.289-.598 2.641-1.435 4.055-2.514.353-.269.709-.55 1.062-.845.395-1.629.858-3.135 1.397-4.504.98-2.59 1.975-5.16 2.984-7.715a4697.75 4697.75 0 0 1 2.774-7.019l12.732-32.104c.504-1.294 1.184-2.207 2.037-2.738.856-.53 1.717-.796 2.586-.796.867 0 1.658.282 2.373.846.715.565 1.073 1.477 1.073 2.738 0 .597-.12 1.228-.358 1.891a22.894 22.894 0 0 1-.904 2.14 396.042 396.042 0 0 0-2.5 5.724 867.899 867.899 0 0 0-6.514 15.654 5011.643 5011.643 0 0 1-3.404 8.387c-1.105 2.722-2.143 5.3-3.11 7.74-.966 2.439-1.798 4.555-2.5 6.346a27.944 27.944 0 0 0-.902 2.664c-.295 1.011-.441 1.916-.441 2.713 0 .496.084.894.252 1.193.168.299.49.449.966.449.588 0 1.323-.207 2.206-.623.882-.414 1.834-.963 2.857-1.643a45.66 45.66 0 0 0 3.193-2.339 99.148 99.148 0 0 0 3.299-2.737 89.618 89.618 0 0 0 3.131-2.838c.994-.945 1.885-1.816 2.67-2.613.184-.191.404-.326.646-.427a89.386 89.386 0 0 0 1.286-4.151c.224-.598.533-1.443.925-2.539.391-1.096.84-2.174 1.344-3.236.504-1.061 1.073-1.983 1.701-2.762.631-.779 1.311-1.17 2.039-1.17 1.121 0 1.934.258 2.438.771.504.516.756 1.27.756 2.266 0 .199-.028.514-.084.945-.057.432-.125.889-.209 1.37-.084.48-.176.937-.274 1.369-.099.431-.189.746-.273.945a56.639 56.639 0 0 1 3.361-3.359 34.588 34.588 0 0 1 3.74-3.012 21.613 21.613 0 0 1 3.952-2.192c1.343-.562 2.689-.845 4.033-.845.924 0 1.842.133 2.752.399.91.265 1.724.655 2.437 1.169a6.113 6.113 0 0 1 1.744 1.942c.448.779.672 1.683.672 2.712 0 1.362-.342 2.813-1.029 4.356a31.546 31.546 0 0 1-2.584 4.652 58.26 58.26 0 0 1-3.361 4.555 173.74 173.74 0 0 1-3.383 4.031 343.597 343.597 0 0 0-2.649 3.086c-.712.848-1.086 1.42-1.113 1.719 0 .398.127.721.379.971.252.248.672.373 1.26.373.476 0 1.178-.266 2.101-.797.924-.531 2.221-1.451 3.887-2.762s3.783-3.07 6.346-5.277a605.745 605.745 0 0 0 6.135-5.366l11.114-102.929c-1.79.988-3.652 1.608-4.75 1.971-4.598 1.518-11.091 2.87-19.299 4.016zM87.474 84.99c-48.049 0-87 5.372-87 12s38.951 12 87 12 87-5.372 87-12-38.951-12-87-12zm34.738 15.507c0 1.555-4.629 2.816-10.34 2.816-5.71 0-10.339-1.261-10.339-2.816 0-1.556 4.629-2.817 10.339-2.817 5.711 0 10.34 1.261 10.34 2.817z"/><path d="M103.627 99.252a.467.467 0 0 0-.078.25c0 1.007 3.727 1.822 8.323 1.822 4.597 0 8.323-.815 8.323-1.822l10.871-44.078 43.233-45.645a.878.878 0 0 0 .041-.043c.915-1.035-.942-4.238-4.023-6.985-3.081-2.747-6.408-3.677-7.442-2.631a.843.843 0 0 0-.023.024l-46.127 48.538-13.098 50.57z"/></g></symbol><symbol id="html5" viewBox="0 0 512 512"><title>HTML5 Logo Badge</title><path fill="#E34F26" d="M71 460L30 0h451l-41 460-185 52"/><path fill="#EF652A" d="M256 472l149-41 35-394H256"/><path fill="#EBEBEB" d="M256 208h-75l-5-58h80V94H114l1 15 14 156h127zm0 147h-1l-63-17-4-45h-56l7 89 116 32h1z"/><path fill="#FFF" d="M255 208v57h70l-7 73-63 17v59l116-32 1-10 13-149 2-15h-16zm0-114v56h137l1-12 3-29 1-15z"/></symbol><symbol id="js" viewBox="0 0 630 630"><path fill="#f7df1e" d="M0 0h630v630H0z"/><path d="M165.65 526.474l48.212-29.178c9.302 16.492 17.763 30.444 38.058 30.444 19.454 0 31.719-7.61 31.719-37.21v-201.3h59.203v202.137c0 61.32-35.943 89.232-88.385 89.232-47.36 0-74.852-24.529-88.807-54.13M375 520.13l48.206-27.911c12.69 20.724 29.183 35.947 58.361 35.947 24.532 0 40.174-12.265 40.174-29.181 0-20.299-16.068-27.489-43.135-39.326l-14.797-6.348c-42.715-18.181-71.05-41.017-71.05-89.227 0-44.404 33.831-78.238 86.695-78.238 37.637 0 64.702 13.111 84.154 47.366l-46.097 29.602c-10.15-18.183-21.142-25.372-38.057-25.372-17.339 0-28.335 10.995-28.335 25.372 0 17.762 10.996 24.952 36.367 35.948l14.8 6.343c50.325 21.569 78.66 43.557 78.66 93.034 0 53.287-41.866 82.465-98.11 82.465-54.976 0-90.5-26.218-107.836-60.474"/></symbol><symbol id="less" viewBox="0 0 256 110"><g transform="translate(16)" fill="none" fill-rule="evenodd"><use fill="url(#b)" xlink:href="#a"/><mask id="d" fill="#fff"><use xlink:href="#c"/></mask><use xlink:href="#c"/><path d="M229.071 40.43c0-8.197 1.261-13.031 1.261-21.858 0-13.662-5.045-18.076-16.184-18.076h-8.197v9.668h2.522c5.675 0 6.936 1.892 6.936 8.828 0 6.515-.631 13.031-.631 20.598 0 9.668 3.153 13.451 9.458 14.922v.631c-6.305 1.471-9.458 5.255-9.458 14.923 0 7.566.631 13.662.631 20.598 0 7.146-1.471 9.037-6.936 9.037v.21h-2.522V110h8.197c11.139 0 16.184-4.414 16.184-18.075 0-9.038-1.261-13.662-1.261-21.859 0-4.414 2.732-9.038 10.929-9.458v-10.93c-8.197-.21-10.929-4.834-10.929-9.248M135.961 53.251c-6.516-2.522-12.401-3.993-12.401-8.197 0-3.152 2.522-5.044 7.146-5.044 4.624 0 8.828 1.892 13.452 5.255l8.407-11.14c-5.255-3.993-12.401-8.197-22.069-8.197-14.292 0-23.961 8.197-23.961 19.757 0 10.299 9.038 15.553 16.605 18.496 6.515 2.522 12.821 4.624 12.821 8.827 0 3.153-2.523 5.255-8.197 5.255-5.255 0-10.509-2.102-16.184-6.516l-8.197 12.191c6.305 5.254 15.973 8.827 23.96 8.827 16.815 0 25.852-8.827 25.852-20.387s-9.037-16.394-17.234-19.127M186.824 53.251c-6.305-2.522-12.19-3.993-12.19-8.197 0-3.152 2.522-5.044 7.146-5.044 4.624 0 8.828 1.892 13.452 5.255l8.407-11.14c-5.255-3.993-12.401-8.197-22.069-8.197-14.293 0-23.961 8.197-23.961 19.757 0 10.299 9.038 15.553 16.604 18.496 6.516 2.522 12.821 4.624 12.821 8.827 0 3.153-2.522 5.255-8.197 5.255-5.254 0-10.509-2.102-16.183-6.516l-8.408 12.191c6.306 5.254 15.974 8.827 23.961 8.827 16.814 0 25.852-8.827 25.852-20.387s-9.038-16.394-17.235-19.127M61.977 52.2c1.261-8.407 6.305-12.4 12.19-12.4 7.567 0 10.51 5.254 10.51 12.4h-22.7zm38.673 3.784c.21-17.025-9.038-30.266-26.693-30.266-15.343 0-30.055 12.821-29.635 32.998 0 20.808 13.662 32.998 31.737 32.998 7.567 0 15.974-2.732 22.489-7.146l-6.305-11.139c-4.624 2.732-9.038 3.993-13.662 3.993-8.407 0-14.923-3.993-16.604-13.662h38.043c.21-1.471.63-4.413.63-7.776z" fill="#FAF9F8" mask="url(#d)"/><path d="M43.271 77.002c-1.471 0-3.363-1.261-3.363-5.255V.496H10.062C-1.287.496-6.332 4.91-6.332 18.572c0 9.037 1.261 14.082 1.261 21.858 0 4.414-2.732 9.038-10.929 9.458v10.93c8.197.21 10.929 4.834 10.929 9.248 0 7.777-1.261 12.4-1.261 21.438 0 13.662 5.045 18.076 16.184 18.076h8.197v-9.669h-2.522c-5.254 0-6.936-2.101-6.936-9.037 0-6.936.631-12.821.631-20.598 0-9.668-3.153-13.452-9.459-14.923v-.63c6.306-1.472 9.459-5.255 9.459-14.923 0-7.567-.631-13.662-.631-20.598 0-6.936 1.471-8.827 6.936-8.827h5.675v60.321c0 12.821 4.414 21.229 17.235 21.229 3.993 0 7.146-.631 9.458-1.472l-2.102-13.661c-1.261.21-1.891.21-2.522.21" fill="#FAF9F8" mask="url(#d)"/></g></symbol><symbol id="mouse-click" viewBox="0 0 60 100"><ellipse stroke-width="4" stroke="#000" fill="none" rx="28" ry="48" cx="30" cy="50"/><path stroke-width="4" stroke="#000" d="M4 50h52"/><path d="M32 4v46H3l2-20 3-10 8-12 4-3 5-2z"/><path stroke-width="4" stroke="#000" d="M14 1l-3 2-4 4-1 1-1 2-2 3-2 7"/></symbol><symbol id="sass" viewBox="0 0 256 192" preserveAspectRatio="xMidYMid"><path d="M220.281 110.514c-8.906.046-16.647 2.191-23.128 5.362-2.379-4.71-4.757-8.906-5.176-11.984-.467-3.59-1.026-5.782-.467-10.072.56-4.29 3.078-10.399 3.031-10.865-.046-.466-.56-2.658-5.689-2.704-5.129-.047-9.559.979-10.072 2.331-.513 1.352-1.492 4.43-2.145 7.6-.886 4.664-10.258 21.31-15.62 30.03-1.726-3.403-3.218-6.388-3.545-8.766-.466-3.59-1.026-5.782-.466-10.072.56-4.29 3.078-10.398 3.031-10.865-.047-.466-.56-2.658-5.689-2.704-5.13-.047-9.56.979-10.072 2.331-.513 1.353-1.073 4.523-2.145 7.601-1.073 3.078-13.523 30.87-16.787 38.05a214.726 214.726 0 0 1-4.15 8.627s-.047.14-.187.373a117.773 117.773 0 0 1-1.398 2.658v.046c-.7 1.26-1.446 2.425-1.819 2.425-.28 0-.793-3.357.093-7.927 1.865-9.652 6.295-24.667 6.249-25.18 0-.28.839-2.891-2.891-4.244-3.638-1.352-4.943.886-5.27.886-.326 0-.56.793-.56.793s4.058-16.88-7.74-16.88c-7.367 0-17.533 8.067-22.569 15.341a6269.96 6269.96 0 0 0-17.16 9.373c-2.75 1.539-5.595 3.078-8.253 4.523-.187-.186-.373-.42-.56-.606-14.269-15.248-40.661-26.02-39.542-46.49.42-7.461 2.984-27.046 50.687-50.827 39.262-19.352 70.505-13.99 75.914-2.099 7.74 16.974-16.74 48.496-57.309 53.065-15.481 1.726-23.595-4.243-25.646-6.481-2.145-2.332-2.472-2.472-3.265-2.005-1.305.7-.466 2.798 0 4.01 1.213 3.17 6.202 8.766 14.642 11.518 7.461 2.424 25.6 3.777 47.563-4.71 24.574-9.513 43.786-35.952 38.144-58.101-5.643-22.476-42.947-29.89-78.246-17.347C61.086 13.99 38.33 25.74 21.963 41.035 2.518 59.22-.56 75.028.699 81.65c4.524 23.501 36.932 38.796 49.895 50.127-.653.373-1.26.7-1.772.98-6.482 3.217-31.196 16.133-37.351 29.796-6.994 15.481 1.12 26.58 6.482 28.071 16.647 4.617 33.76-3.683 42.946-17.393 9.186-13.709 8.067-31.522 3.824-39.682-.047-.093-.093-.187-.187-.28 1.679-.979 3.404-2.005 5.083-2.984a247.933 247.933 0 0 1 9.373-5.27c-1.586 4.337-2.752 9.513-3.311 16.974-.7 8.767 2.89 20.144 7.6 24.62 2.099 1.96 4.57 2.006 6.156 2.006 5.502 0 7.974-4.57 10.725-9.979 3.357-6.621 6.388-14.315 6.388-14.315s-3.777 20.797 6.482 20.797c3.73 0 7.507-4.85 9.186-7.321v.046s.093-.14.28-.466c.373-.606.606-.98.606-.98v-.092c1.492-2.612 4.85-8.534 9.839-18.373 6.435-12.683 12.637-28.537 12.637-28.537s.56 3.87 2.471 10.305c1.12 3.777 3.45 7.927 5.316 11.937-1.492 2.099-2.425 3.264-2.425 3.264l.047.047c-1.213 1.585-2.518 3.31-3.964 4.99-5.083 6.061-11.144 13.01-11.984 15.014-.98 2.378-.746 4.104 1.12 5.503 1.352 1.026 3.776 1.165 6.248 1.026 4.57-.327 7.787-1.446 9.372-2.145 2.472-.886 5.363-2.239 8.067-4.244 4.99-3.684 8.02-8.953 7.741-15.9-.14-3.824-1.399-7.648-2.938-11.239.467-.652.886-1.305 1.353-1.958 7.88-11.518 13.989-24.155 13.989-24.155s.56 3.87 2.471 10.306c.933 3.264 2.845 6.808 4.523 10.258-7.414 6.016-11.984 13.01-13.616 17.58-2.937 8.487-.653 12.31 3.684 13.196 1.958.42 4.756-.513 6.808-1.399 2.611-.839 5.689-2.284 8.627-4.43 4.99-3.683 9.792-8.813 9.512-15.76-.14-3.171-.979-6.296-2.145-9.327 6.295-2.61 14.409-4.056 24.76-2.844 22.197 2.611 26.58 16.46 25.74 22.29-.839 5.828-5.502 8.999-7.04 9.978-1.54.98-2.052 1.306-1.912 2.005.186 1.026.932.98 2.238.793 1.819-.326 11.658-4.71 12.077-15.435.7-13.709-12.357-28.677-35.439-28.537zM49.055 168.242c-7.368 8.02-17.626 11.051-22.056 8.487-4.756-2.752-2.891-14.596 6.155-23.082 5.502-5.176 12.59-9.98 17.3-12.917 1.072-.653 2.658-1.585 4.57-2.751.326-.187.513-.28.513-.28l1.119-.7c3.31 12.124.14 22.803-7.601 31.243zm53.625-36.465c-2.565 6.249-7.927 22.243-11.191 21.357-2.798-.746-4.524-12.87-.56-24.854 2.005-6.016 6.248-13.197 8.72-15.994 4.01-4.477 8.44-5.97 9.512-4.15 1.353 2.378-4.896 19.724-6.481 23.641zm44.252 21.17c-1.073.56-2.098.933-2.565.653-.326-.187.467-.933.467-.933s5.549-5.968 7.74-8.673c1.26-1.585 2.751-3.45 4.337-5.549v.606c0 7.135-6.902 11.938-9.98 13.896zm34.133-7.787c-.793-.56-.653-2.425 2.005-8.254 1.026-2.285 3.45-6.108 7.601-9.792.466 1.492.793 2.938.746 4.29-.047 9-6.481 12.357-10.352 13.756z" fill="#CD6799"/></symbol><symbol id="tg" viewBox="15 21 42 36"><path d="M53.7 21.8L16 36.4c-1.2.5-1.1 2.2.1 2.6l9.6 2.8 3.6 11.3c.4 1.2 1.9 1.5 2.7.7l4.9-5 9.7 7.1c1.2.9 2.9.2 3.2-1.2L56.3 24c.3-1.5-1.2-2.8-2.6-2.2zM49 28.6L31.5 44.1c-.2.2-.3.4-.3.6l-.7 6c0 .2-.3.2-.4 0l-2.8-8.9c-.1-.4 0-.9.4-1.1l20.7-12.8c.5-.3 1 .3.6.7z"/></symbol><symbol id="vk" viewBox="110 235 580 335"><path d="M393 566c-135 0-208-143-276-285-10-21 6-23 16-23l81-1c12 0 17 9 20 15 13 31 66 142 92 129 18-9 15-107 4-122-7-9-20-12-26-13-5-1 3-11 13-16 18-9 87-9 111-3 28 7 19 32 19 95 0 20-4 50 11 58 24 12 81-101 91-131 3-8 9-11 19-11h85c20 0 27 1 30 8 5 12-9 40-44 87-57 77-65 70-17 114 46 42 55 63 57 66 14 28-11 34-21 34h-76c-9 0-21 0-38-11-29-19-55-70-76-64-17 5-20 34-21 53-1 16-10 21-20 21h-34z"/></symbol></svg>